HIERARCHY
ROOT Hips
{
	OFFSET -0.001795 -0.223333 0.028219
	CHANNELS 6 Xposition Yposition Zposition Zrotation Yrotation Xrotation 
	JOINT LeftUpLeg
	{
		OFFSET 0.069520 -0.091406 -0.006815
		CHANNELS 3 Zrotation Yrotation Xrotation
		JOINT LeftLeg
		{
			OFFSET 0.034277 -0.375199 -0.004496
			CHANNELS 3 Zrotation Yrotation Xrotation
			JOINT LeftFoot
			{
				OFFSET -0.013596 -0.397961 -0.043693
				CHANNELS 3 Zrotation Yrotation Xrotation
				JOINT LeftToe
				{
					OFFSET 0.026358 -0.055791 0.119288
					CHANNELS 3 Zrotation Yrotation Xrotation
					End Site
					{
						OFFSET 0.000000 0.000000 0.000000
					}
				}
			}
		}
	}
	JOINT RightUpLeg
	{
		OFFSET -0.067670 -0.090522 -0.004320
		CHANNELS 3 Zrotation Yrotation Xrotation
		JOINT RightLeg
		{
			OFFSET -0.038290 -0.382569 -0.008850
			CHANNELS 3 Zrotation Yrotation Xrotation
			JOINT RightFoot
			{
				OFFSET 0.015774 -0.398415 -0.042312
				CHANNELS 3 Zrotation Yrotation Xrotation
				JOINT RightToe
				{
					OFFSET -0.025372 -0.048144 0.123348
					CHANNELS 3 Zrotation Yrotation Xrotation
					End Site
					{
						OFFSET 0.000000 0.000000 0.000000
					}
				}
			}
		}
	}
	JOINT Spine
	{
		OFFSET -0.002533 0.108963 -0.026696
		CHANNELS 3 Zrotation Yrotation Xrotation
		JOINT Spine1
		{
			OFFSET 0.005487 0.135180 0.001092
			CHANNELS 3 Zrotation Yrotation Xrotation
			JOINT Spine2
			{
				OFFSET 0.001457 0.052922 0.025425
				CHANNELS 3 Zrotation Yrotation Xrotation
				JOINT Neck
				{
					OFFSET -0.002778 0.213870 -0.042857
					CHANNELS 3 Zrotation Yrotation Xrotation
					JOINT Head
					{
						OFFSET 0.005152 0.064970 0.051349
						CHANNELS 3 Zrotation Yrotation Xrotation
						End Site
						{
							OFFSET 0.000000 0.000000 0.000000
						}
					}
				}
				JOINT LeftShoulder
				{
					OFFSET 0.078845 0.121749 -0.034090
					CHANNELS 3 Zrotation Yrotation Xrotation
					JOINT LeftArm
					{
						OFFSET 0.090977 0.030469 -0.008868
						CHANNELS 3 Zrotation Yrotation Xrotation
						JOINT LeftForeArm
						{
							OFFSET 0.259612 -0.012772 -0.027456
							CHANNELS 3 Zrotation Yrotation Xrotation
							JOINT LeftHand
							{
								OFFSET 0.249234 0.008986 -0.001171
								CHANNELS 3 Zrotation Yrotation Xrotation
								End Site
								{
									OFFSET 0.000000 0.000000 0.000000
								}
							}
						}
					}
				}
				JOINT RightShoulder
				{
					OFFSET -0.081759 0.118833 -0.038615
					CHANNELS 3 Zrotation Yrotation Xrotation
					JOINT RightArm
					{
						OFFSET -0.096012 0.032551 -0.009143
						CHANNELS 3 Zrotation Yrotation Xrotation
						JOINT RightForeArm
						{
							OFFSET -0.253742 -0.013329 -0.021401
							CHANNELS 3 Zrotation Yrotation Xrotation
							JOINT RightHand
							{
								OFFSET -0.255298 0.007772 -0.005559
								CHANNELS 3 Zrotation Yrotation Xrotation
								End Site
								{
									OFFSET 0.000000 0.000000 0.000000
								}
							}
						}
					}
				}
			}
		}
	}
}
MOTION
Frames: 5
Frame Time: 0.050000
0.468107 0.903957 0.778064 -142.350496 -89.689469 145.296965 -4.298814 2.904753 -23.650557 3.074166 1.803600 11.780852 -0.243772 3.137621 -0.610506 0.000000 0.000000 0.000000 -5.176067 4.689576 12.782769 -0.558049 2.391324 15.725839 39.168644 20.085226 39.809864 0.000000 0.000000 0.000000 2.675240 -0.025693 0.295988 -9.715724 11.569946 8.901103 12.265565 -16.784579 -1.884108 -6.497821 2.315786 -14.214908 0.000000 0.000000 0.000000 -39.963523 3.133173 21.731429 -27.590314 -8.866273 -6.278303 16.665517 -32.101945 -3.744130 0.000000 0.000000 0.000000 19.256000 12.073004 -12.681371 15.198146 -11.653647 -0.616083 83.276169 65.966460 53.476983 0.000000 0.000000 0.000000 
0.415145 0.913209 0.799595 -56.447212 -89.379461 59.869369 -4.400332 1.818816 -20.085429 1.866516 2.206333 11.228160 -0.889486 4.105250 -3.917671 0.000000 0.000000 0.000000 -4.102224 3.253631 10.129319 -0.493355 4.508155 22.048500 32.228769 5.220570 47.279338 0.000000 0.000000 0.000000 2.225915 0.033438 -0.103627 -11.847720 10.214259 4.472148 13.469515 -16.085506 1.050920 -5.647484 1.811514 -14.443682 0.000000 0.000000 0.000000 -40.666860 3.263898 23.035660 -27.097443 -9.350475 -6.460959 15.206521 -30.219327 -3.366920 0.000000 0.000000 0.000000 19.638846 10.088938 -14.489376 15.550911 -10.181638 -0.459450 79.388547 63.616600 47.861326 0.000000 0.000000 0.000000 
0.366543 0.921881 0.817913 -3.491057 -85.970822 6.954580 -5.296921 0.422031 -16.746231 1.063199 2.397916 11.179798 -2.278276 2.257362 -5.628906 0.000000 0.000000 0.000000 -2.782392 1.476114 4.181595 0.584721 7.397768 29.561760 27.241668 2.064829 44.983608 0.000000 0.000000 0.000000 2.251010 0.182412 -1.742531 -9.726716 8.974600 5.692025 10.970580 -17.376375 0.309253 -4.914662 1.269839 -13.936594 0.000000 0.000000 0.000000 -40.413791 4.595300 21.270119 -29.402341 -6.705869 -7.230729 18.596367 -36.656744 -4.773362 0.000000 0.000000 0.000000 22.837258 12.458350 -15.862974 11.368269 -11.969266 -0.049292 78.106054 58.022749 44.840006 0.000000 0.000000 0.000000 
0.321890 0.929606 0.833790 5.903448 -82.584751 -3.372845 -7.858929 -0.885767 -11.418515 2.181179 1.407793 9.194037 -2.929808 1.217025 -5.985782 0.000000 0.000000 0.000000 -3.841323 1.063914 -1.265890 5.449343 8.714006 35.505129 11.290854 8.916121 11.277448 0.000000 0.000000 0.000000 1.077151 0.165083 -1.637843 -9.991385 9.849311 7.279898 11.518866 -17.404088 -1.090916 -3.893545 0.427629 -15.523953 0.000000 0.000000 0.000000 -40.108061 2.921903 20.968919 -29.882850 -6.047914 -7.028932 20.773876 -39.879593 -5.875289 0.000000 0.000000 0.000000 20.742182 10.577901 -14.046199 14.430857 -10.851918 -0.284267 71.788863 56.466422 36.595518 0.000000 0.000000 0.000000 
0.280594 0.934240 0.846737 4.423589 -77.470601 -2.846179 -8.531291 -1.120897 -7.054521 2.502433 0.976088 8.543627 -4.653526 -2.613892 -6.604801 0.000000 0.000000 0.000000 -2.573686 0.777039 -5.856073 5.841138 8.712929 36.419538 -10.657443 3.155384 -17.576626 0.000000 0.000000 0.000000 0.497187 0.065081 -0.773213 -9.179906 8.875891 7.370862 10.892443 -17.525542 -1.452265 -3.362632 0.050840 -15.677819 0.000000 0.000000 0.000000 -41.306297 2.810536 20.904750 -29.467424 -6.251905 -7.134999 26.649748 -43.934333 -8.655791 0.000000 0.000000 0.000000 21.348806 11.783437 -13.531436 15.314682 -11.969208 -0.278682 65.915070 51.627412 28.977762 0.000000 0.000000 0.000000 
